<?xml version="1.0" encoding="UTF-8" standalone="no"?>
<!-- Created with Serif DrawPlus 11, 0, 3, 23 (Feb 25, 14:12:55) (http://www.serif.com) -->

<svg
   xmlns:dc="http://purl.org/dc/elements/1.1/"
   xmlns:cc="http://creativecommons.org/ns#"
   xmlns:rdf="http://www.w3.org/1999/02/22-rdf-syntax-ns#"
   xmlns:svg="http://www.w3.org/2000/svg"
   xmlns="http://www.w3.org/2000/svg"
   xmlns:sodipodi="http://sodipodi.sourceforge.net/DTD/sodipodi-0.dtd"
   xmlns:inkscape="http://www.inkscape.org/namespaces/inkscape"
   version="1.1"
   width="370.88699"
   height="370.88699"
   id="svg1009"
   sodipodi:docname="Quaternion_2.svg"
   inkscape:version="0.92.5 (2060ec1f9f, 2020-04-08)">
  <metadata
     id="metadata1015">
    <rdf:RDF>
      <cc:Work
         rdf:about="">
        <dc:format>image/svg+xml</dc:format>
        <dc:type
           rdf:resource="http://purl.org/dc/dcmitype/StillImage" />
      </cc:Work>
    </rdf:RDF>
  </metadata>
  <defs
     id="defs1013" />
  <sodipodi:namedview
     pagecolor="#ffffff"
     bordercolor="#666666"
     borderopacity="1"
     objecttolerance="10"
     gridtolerance="10"
     guidetolerance="10"
     inkscape:pageopacity="0"
     inkscape:pageshadow="2"
     inkscape:window-width="2502"
     inkscape:window-height="1376"
     id="namedview1011"
     showgrid="false"
     inkscape:zoom="1.6722117"
     inkscape:cx="185.444"
     inkscape:cy="112.2475"
     inkscape:window-x="58"
     inkscape:window-y="27"
     inkscape:window-maximized="1"
     inkscape:current-layer="dp_group001" />
  <g
     id="dp_group001"
     transform="translate(47.508,-489.873)">
    <g
       id="dp_group002">
      <g
         id="dp_group003">
        <g
           id="dp_group004">
          <path
             id="dp_path005"
             d="m 312.896,684.447 v 2.097 4.193 l 10.483,-5.242 -10.483,-5.242 z"
             inkscape:connector-curvature="0"
             style="fill:#000000;fill-rule:evenodd" />
          <path
             id="dp_path006"
             d="m -47.508,686.544 h 360.404 v -2.096 H -47.508 Z"
             inkscape:connector-curvature="0"
             style="fill:#000000" />
        </g>
      </g>
      <g
         id="dp_group007">
        <g
           id="dp_group008">
          <path
             id="dp_path009"
             d="m 137.091,500.356 h 2.097 4.193 l -5.242,-10.483 -5.242,10.483 z"
             inkscape:connector-curvature="0"
             style="fill:#000000;fill-rule:evenodd" />
          <path
             id="dp_path010"
             d="M 139.188,860.76 V 500.356 h -2.096 V 860.76 Z"
             inkscape:connector-curvature="0"
             style="fill:#000000" />
        </g>
      </g>
      <g
         id="dp_group011">
        <g
           id="dp_group012">
          <path
             id="dp_path013"
             d="m 260.789,559.921 1.483,1.483 2.964,2.964 3.707,-11.119 -11.119,3.707 z"
             inkscape:connector-curvature="0"
             style="fill:#000000;fill-rule:evenodd" />
          <path
             id="dp_path014"
             d="M 7.42667,816.249 262.272,561.404 260.789,559.921 5.944,814.767 Z"
             inkscape:connector-curvature="0"
             style="fill:#000000" />
        </g>
      </g>
      <g
         id="dp_group015">
        <g
           id="dp_group016">
          <path
             id="dp_path017"
             d="m 262.393,808.472 -1.482,1.483 -2.964,2.964 11.118,3.706 -3.706,-11.118 z"
             inkscape:connector-curvature="0"
             style="fill:#000000;fill-rule:evenodd" />
          <path
             id="dp_path018"
             d="M 6.06533,555.109 260.911,809.955 262.393,808.472 7.548,553.627 Z"
             inkscape:connector-curvature="0"
             style="fill:#000000" />
        </g>
      </g>
      <text
         id="dp_text001"
         transform="translate(201.258,792.529)"
         xml:space="preserve"
         font-size="27"
         font-weight="400"
         x="0"
         y="0"
         style="font-weight:400;font-size:27px;font-family:Arial;fill:#000000">k </text>
      <text
         id="dp_text002"
         transform="translate(292.544,714.024)"
         xml:space="preserve"
         font-size="27"
         font-weight="400"
         x="0"
         y="0"
         style="font-weight:400;font-size:27px;font-family:Arial;fill:#000000">1 </text>
      <text
         id="dp_text003"
         transform="translate(222.602,642.16)"
         xml:space="preserve"
         font-size="27"
         font-weight="400"
         x="0"
         y="0"
         style="font-weight:400;font-size:27px;font-family:Arial;fill:#000000">j </text>
      <text
         id="dp_text004"
         transform="translate(147.767,538.446)"
         xml:space="preserve"
         font-size="27"
         font-weight="400"
         x="0"
         y="0"
         style="font-weight:400;font-size:27px;font-family:Arial;fill:#000000">i </text>
      <g
         id="dp_group023">
        <g
           id="dp_group024">
          <path
             id="dp_path025"
             d="m 216.409,616.976 0.536,-1.927 1.074,-3.853 -10.975,2.135 8.292,7.498 z"
             inkscape:connector-curvature="0"
             style="fill:#ff0202;fill-rule:evenodd" />
          <path
             id="dp_path026"
             d="m 216.409,616.976 0.708,0.196 1.244,0.376 1.242,0.383 1.233,0.386 1.224,0.391 1.216,0.396 1.208,0.4 1.197,0.404 1.19,0.407 1.181,0.412 1.169,0.416 1.164,0.42 1.154,0.424 1.144,0.426 1.134,0.432 1.126,0.435 1.117,0.44 1.107,0.443 1.098,0.446 1.09,0.452 1.078,0.454 1.07,0.457 1.06,0.461 1.052,0.466 1.041,0.469 1.031,0.471 1.022,0.477 1.014,0.479 1.002,0.481 0.994,0.487 0.982,0.489 0.975,0.493 0.963,0.495 0.954,0.5 0.944,0.501 0.934,0.507 0.924,0.509 0.914,0.512 0.904,0.515 0.894,0.519 0.884,0.52 0.873,0.525 0.863,0.527 0.853,0.53 0.843,0.534 0.832,0.536 0.822,0.537 0.811,0.541 0.801,0.546 0.791,0.546 0.78,0.551 0.769,0.552 0.759,0.555 0.747,0.557 0.738,0.561 0.728,0.562 0.715,0.565 0.705,0.568 0.695,0.571 0.683,0.572 0.672,0.574 0.662,0.578 0.651,0.58 0.639,0.581 0.629,0.584 0.617,0.585 0.606,0.59 0.594,0.59 0.586,0.592 0.572,0.595 0.561,0.596 0.549,0.599 0.539,0.6 0.528,0.602 0.516,0.604 0.504,0.607 0.493,0.607 0.482,0.61 0.47,0.611 0.459,0.613 0.447,0.614 0.434,0.616 0.424,0.617 0.412,0.62 0.4,0.62 0.388,0.623 0.376,0.624 0.366,0.624 0.352,0.628 0.342,0.628 0.328,0.628 0.318,0.63 0.305,0.631 0.292,0.633 0.281,0.635 0.271,0.636 0.257,0.636 0.246,0.639 0.117,0.317 0.115,0.32 0.113,0.319 0.107,0.32 0.108,0.321 0.101,0.32 0.1,0.319 0.096,0.322 0.095,0.323 0.09,0.321 0.088,0.322 0.084,0.321 0.082,0.323 0.078,0.321 0.075,0.324 0.073,0.323 0.068,0.322 0.067,0.322 0.063,0.325 0.06,0.324 0.056,0.324 0.054,0.325 0.051,0.324 0.048,0.326 0.044,0.322 0.041,0.326 0.038,0.324 0.034,0.329 0.034,0.324 0.028,0.327 0.025,0.325 0.023,0.327 0.02,0.328 0.016,0.326 0.013,0.324 0.009,0.327 0.007,0.329 0.004,0.33 v 0.328 l -0.003,0.326 -0.005,0.33 -0.009,0.326 -0.014,0.328 -0.016,0.331 -0.017,0.329 -0.023,0.332 1.995,0.134 0.023,-0.346 0.02,-0.348 0.016,-0.346 0.013,-0.347 0.009,-0.351 0.006,-0.345 0.005,-0.348 -0.003,-0.347 -0.004,-0.345 -0.006,-0.345 -0.01,-0.348 -0.013,-0.348 -0.019,-0.346 -0.02,-0.344 -0.022,-0.345 -0.028,-0.347 -0.031,-0.345 -0.033,-0.345 -0.038,-0.343 -0.04,-0.345 -0.044,-0.344 -0.046,-0.344 -0.051,-0.344 -0.053,-0.343 -0.058,-0.341 -0.058,-0.343 -0.066,-0.343 -0.065,-0.341 -0.069,-0.343 -0.074,-0.341 -0.076,-0.341 -0.08,-0.34 -0.081,-0.34 -0.087,-0.342 -0.089,-0.34 -0.093,-0.34 -0.096,-0.337 -0.098,-0.336 -0.101,-0.339 -0.105,-0.34 -0.11,-0.336 -0.11,-0.337 -0.115,-0.336 -0.119,-0.337 -0.12,-0.334 -0.125,-0.338 -0.256,-0.668 -0.271,-0.668 -0.281,-0.666 -0.295,-0.664 -0.308,-0.662 -0.318,-0.66 -0.331,-0.66 -0.344,-0.658 -0.356,-0.654 -0.368,-0.652 -0.379,-0.651 -0.392,-0.651 -0.404,-0.646 -0.416,-0.644 -0.428,-0.644 -0.44,-0.642 -0.45,-0.637 -0.463,-0.637 -0.475,-0.635 -0.486,-0.632 -0.498,-0.629 -0.509,-0.628 -0.52,-0.626 -0.532,-0.622 -0.544,-0.622 -0.555,-0.618 -0.565,-0.615 -0.577,-0.615 -0.591,-0.61 -0.599,-0.608 -0.61,-0.607 -0.622,-0.603 -0.633,-0.601 -0.645,-0.6 -0.655,-0.595 -0.667,-0.593 -0.676,-0.591 -0.688,-0.588 -0.698,-0.585 -0.708,-0.581 -0.722,-0.582 -0.73,-0.576 -0.742,-0.574 -0.752,-0.572 -0.762,-0.568 -0.775,-0.566 -0.783,-0.562 -0.793,-0.559 -0.804,-0.557 -0.815,-0.554 -0.826,-0.552 -0.836,-0.548 -0.846,-0.544 -0.856,-0.541 -0.866,-0.539 -0.876,-0.534 -0.887,-0.534 -0.897,-0.528 -0.907,-0.526 -0.917,-0.523 -0.926,-0.517 -0.937,-0.518 -0.947,-0.512 -0.957,-0.509 -0.965,-0.505 -0.976,-0.503 -0.986,-0.499 -0.996,-0.494 -1.004,-0.492 -1.016,-0.49 -1.024,-0.484 -1.033,-0.48 -1.044,-0.478 -1.052,-0.472 -1.063,-0.471 -1.07,-0.467 -1.083,-0.462 -1.089,-0.459 -1.1,-0.455 -1.11,-0.452 -1.117,-0.448 -1.128,-0.442 -1.136,-0.44 -1.145,-0.435 -1.155,-0.432 -1.164,-0.427 -1.172,-0.425 -1.183,-0.419 -1.189,-0.414 -1.2,-0.412 -1.208,-0.407 -1.219,-0.403 -1.224,-0.398 -1.234,-0.396 -1.244,-0.39 -1.252,-0.385 -1.268,-0.384 -0.73,-0.204 z"
             inkscape:connector-curvature="0"
             style="fill:#ff0202" />
        </g>
      </g>
      <g
         id="dp_group027">
        <g
           id="dp_group028">
          <path
             id="dp_path029"
             d="m 208.925,745.528 -1.998,0.003 -4,0.005 5.013,9.993 4.985,-10.006 z"
             inkscape:connector-curvature="0"
             style="fill:#0101ff;fill-rule:evenodd" />
          <path
             id="dp_path030"
             d="m 137.805,543.755 0.338,10e-4 0.328,0.007 0.326,0.013 0.328,0.015 0.327,0.022 0.327,0.026 0.328,0.03 0.326,0.035 0.324,0.039 0.327,0.045 0.327,0.048 0.324,0.055 0.326,0.058 0.326,0.063 0.324,0.067 0.322,0.072 0.327,0.077 0.324,0.081 0.324,0.086 0.323,0.09 0.322,0.095 0.323,0.1 0.323,0.104 0.324,0.109 0.322,0.114 0.322,0.116 0.321,0.124 0.324,0.126 0.32,0.131 0.32,0.136 0.321,0.141 0.322,0.146 0.32,0.149 0.321,0.155 0.319,0.158 0.318,0.162 0.32,0.169 0.32,0.172 0.319,0.176 0.319,0.181 0.317,0.186 0.319,0.19 0.317,0.194 0.315,0.2 0.318,0.204 0.318,0.208 0.316,0.213 0.316,0.217 0.316,0.22 0.313,0.227 0.316,0.231 0.315,0.233 0.313,0.24 0.315,0.244 0.312,0.247 0.313,0.253 0.313,0.257 0.312,0.262 0.312,0.265 0.312,0.269 0.311,0.275 0.309,0.279 0.311,0.282 0.309,0.287 0.31,0.292 0.308,0.296 0.309,0.3 0.307,0.304 0.308,0.309 0.306,0.315 0.307,0.317 0.305,0.32 0.306,0.327 0.304,0.331 0.305,0.334 0.303,0.339 0.304,0.343 0.302,0.348 0.302,0.349 0.3,0.356 0.302,0.361 0.302,0.364 0.298,0.367 0.299,0.372 0.299,0.377 0.298,0.382 0.298,0.384 0.297,0.388 0.591,0.79 0.589,0.807 0.587,0.824 0.585,0.839 0.581,0.856 0.58,0.87 0.575,0.888 0.573,0.903 0.571,0.92 0.569,0.935 0.564,0.949 0.562,0.967 0.558,0.982 0.556,0.998 0.554,1.013 0.549,1.028 0.547,1.044 0.542,1.057 0.539,1.074 0.537,1.09 0.534,1.103 0.529,1.119 0.527,1.133 0.522,1.148 0.52,1.161 0.515,1.178 0.512,1.192 0.508,1.206 0.505,1.22 0.502,1.234 0.497,1.249 0.493,1.263 0.49,1.277 0.486,1.291 0.482,1.304 0.478,1.318 0.474,1.332 0.47,1.346 0.466,1.36 0.461,1.372 0.459,1.386 0.452,1.399 0.449,1.413 0.445,1.426 0.44,1.438 0.438,1.451 0.43,1.465 0.428,1.478 0.422,1.49 0.418,1.504 0.414,1.515 0.41,1.529 0.406,1.542 0.4,1.552 0.394,1.564 0.391,1.578 0.385,1.59 0.382,1.601 0.376,1.615 0.372,1.625 0.365,1.639 0.363,1.649 0.356,1.66 0.35,1.673 0.348,1.684 0.34,1.696 0.336,1.707 0.332,1.719 0.326,1.73 0.32,1.74 0.314,1.752 0.311,1.764 0.304,1.774 0.3,1.784 0.293,1.796 0.288,1.806 0.283,1.816 0.277,1.828 0.271,1.839 0.267,1.848 0.26,1.859 0.253,1.868 0.249,1.88 0.243,1.889 0.292,2.34 0.281,2.349 0.272,2.359 0.263,2.365 0.252,2.375 0.241,2.384 0.234,2.391 0.224,2.396 0.212,2.405 0.204,2.411 0.193,2.418 0.184,2.424 0.173,2.43 0.164,2.437 0.155,2.441 0.144,2.447 0.135,2.452 0.122,2.456 0.115,2.461 0.105,2.466 0.094,2.469 0.085,2.472 0.075,2.475 0.064,2.478 0.054,2.482 0.044,2.485 0.034,2.483 0.002,2.472 2,-0.003 -0.005,-2.483 -0.033,-2.498 -0.044,-2.494 -0.055,-2.489 -0.064,-2.487 -0.075,-2.485 -0.085,-2.48 -0.093,-2.477 -0.106,-2.474 -0.114,-2.469 -0.126,-2.464 -0.134,-2.46 -0.144,-2.455 -0.155,-2.449 -0.164,-2.445 -0.176,-2.44 -0.184,-2.432 -0.193,-2.427 -0.204,-2.419 -0.215,-2.413 -0.224,-2.407 -0.233,-2.398 -0.244,-2.392 -0.252,-2.383 -0.263,-2.376 -0.275,-2.367 -0.281,-2.357 -0.292,-2.351 -0.245,-1.897 -0.25,-1.885 -0.256,-1.876 -0.26,-1.867 -0.266,-1.856 -0.274,-1.844 -0.277,-1.836 -0.285,-1.824 -0.288,-1.815 -0.296,-1.804 -0.3,-1.792 -0.307,-1.781 -0.311,-1.772 -0.317,-1.76 -0.32,-1.748 -0.328,-1.739 -0.332,-1.726 -0.339,-1.715 -0.342,-1.704 -0.348,-1.692 -0.354,-1.681 -0.358,-1.671 -0.363,-1.657 -0.368,-1.647 -0.375,-1.633 -0.376,-1.623 -0.384,-1.612 -0.388,-1.597 -0.393,-1.587 -0.397,-1.575 -0.403,-1.562 -0.408,-1.55 -0.411,-1.537 -0.416,-1.525 -0.421,-1.512 -0.427,-1.502 -0.43,-1.488 -0.434,-1.473 -0.44,-1.461 -0.442,-1.45 -0.448,-1.436 -0.452,-1.424 -0.458,-1.409 -0.461,-1.397 -0.464,-1.383 -0.471,-1.371 -0.473,-1.356 -0.479,-1.342 -0.481,-1.33 -0.487,-1.317 -0.489,-1.301 -0.495,-1.288 -0.498,-1.276 -0.503,-1.26 -0.504,-1.247 -0.511,-1.233 -0.513,-1.218 -0.517,-1.205 -0.523,-1.191 -0.525,-1.174 -0.528,-1.162 -0.532,-1.146 -0.538,-1.132 -0.541,-1.119 -0.543,-1.101 -0.546,-1.09 -0.551,-1.073 -0.555,-1.057 -0.557,-1.044 -0.561,-1.03 -0.564,-1.01 -0.567,-0.999 -0.572,-0.983 -0.575,-0.968 -0.577,-0.95 -0.581,-0.936 -0.584,-0.922 -0.588,-0.904 -0.591,-0.889 -0.595,-0.875 -0.596,-0.857 -0.6,-0.84 -0.602,-0.825 -0.607,-0.81 -0.305,-0.398 -0.303,-0.395 -0.307,-0.392 -0.306,-0.385 -0.307,-0.383 -0.309,-0.38 -0.31,-0.372 -0.308,-0.369 -0.31,-0.367 -0.312,-0.363 -0.311,-0.356 -0.312,-0.353 -0.313,-0.349 -0.314,-0.346 -0.314,-0.341 -0.316,-0.337 -0.316,-0.334 -0.318,-0.328 -0.317,-0.322 -0.319,-0.32 -0.317,-0.315 -0.32,-0.313 -0.321,-0.307 -0.32,-0.303 -0.323,-0.3 -0.321,-0.293 -0.323,-0.289 -0.324,-0.286 -0.325,-0.282 -0.326,-0.276 -0.325,-0.272 -0.327,-0.268 -0.326,-0.264 -0.328,-0.26 -0.328,-0.255 -0.33,-0.251 -0.33,-0.246 -0.33,-0.242 -0.332,-0.237 -0.332,-0.233 -0.332,-0.228 -0.334,-0.224 -0.334,-0.219 -0.332,-0.215 -0.336,-0.21 -0.336,-0.207 -0.337,-0.201 -0.336,-0.196 -0.337,-0.192 -0.34,-0.19 -0.339,-0.182 -0.339,-0.178 -0.34,-0.174 -0.342,-0.17 -0.34,-0.162 -0.342,-0.16 -0.342,-0.156 -0.343,-0.15 -0.344,-0.146 -0.347,-0.142 -0.342,-0.134 -0.346,-0.132 -0.348,-0.127 -0.344,-0.121 -0.348,-0.118 -0.346,-0.112 -0.35,-0.108 -0.349,-0.102 -0.349,-0.096 -0.351,-0.094 -0.348,-0.086 -0.351,-0.083 -0.352,-0.08 -0.353,-0.072 -0.349,-0.068 -0.354,-0.064 -0.353,-0.057 -0.353,-0.054 -0.354,-0.048 -0.356,-0.044 -0.353,-0.037 -0.355,-0.033 -0.353,-0.028 -0.359,-0.023 -0.354,-0.017 -0.356,-0.014 -0.358,-0.006 -0.348,-0.004 z"
             inkscape:connector-curvature="0"
             style="fill:#0101ff" />
        </g>
      </g>
      <g
         id="dp_group031">
        <g
           id="dp_group032">
          <path
             id="dp_path033"
             d="M 72.524,608.161 71.1,606.757 68.252,603.948 64.7907,614.58 75.372,610.969 Z"
             inkscape:connector-curvature="0"
             style="fill:#ff0202;fill-rule:evenodd" />
          <path
             id="dp_path034"
             d="m 72.524,608.16 0.324,-0.329 0.4573,-0.412 0.4774,-0.427 0.4813,-0.421 0.4827,-0.418 0.4853,-0.413 0.488,-0.411 0.4893,-0.408 0.4907,-0.401 0.4947,-0.4 0.496,-0.395 0.4986,-0.39 0.5,-0.388 0.5027,-0.384 0.504,-0.38 0.5067,-0.376 0.5066,-0.372 0.5107,-0.367 0.5133,-0.365 0.5147,-0.362 0.516,-0.356 0.5187,-0.353 0.5186,-0.348 0.5227,-0.347 0.524,-0.341 0.5253,-0.337 0.5267,-0.334 0.5293,-0.33 0.532,-0.327 0.532,-0.323 0.5334,-0.318 0.5373,-0.314 0.5387,-0.312 0.54,-0.308 0.54,-0.302 0.5426,-0.3 0.544,-0.295 0.5467,-0.292 0.548,-0.289 0.548,-0.283 0.5493,-0.281 0.5534,-0.276 0.5533,-0.274 0.5547,-0.268 0.5573,-0.265 0.556,-0.261 0.56,-0.258 0.56,-0.253 0.5627,-0.249 0.5626,-0.247 0.5654,-0.241 0.5666,-0.239 0.5667,-0.236 0.568,-0.231 0.571,-0.226 0.57,-0.223 0.571,-0.219 0.575,-0.214 0.574,-0.212 0.575,-0.208 0.576,-0.204 0.579,-0.2 0.578,-0.198 0.579,-0.192 0.583,-0.186 0.582,-0.187 0.582,-0.18 0.584,-0.177 0.584,-0.174 0.586,-0.169 0.587,-0.165 0.588,-0.163 0.587,-0.157 0.589,-0.154 0.591,-0.15 0.592,-0.147 0.592,-0.143 0.592,-0.14 0.592,-0.134 0.594,-0.131 0.594,-0.128 0.594,-0.123 0.598,-0.12 0.596,-0.116 0.597,-0.112 0.599,-0.108 0.597,-0.104 0.6,-0.101 0.599,-0.097 0.598,-0.092 0.602,-0.088 0.601,-0.087 0.6,-0.081 0.603,-0.076 0.601,-0.075 0.603,-0.069 0.604,-0.067 0.604,-0.063 0.601,-0.058 0.605,-0.054 0.604,-0.052 0.604,-0.046 0.606,-0.043 0.604,-0.04 0.604,-0.035 0.606,-0.03 0.607,-0.028 0.605,-0.026 0.606,-0.02 0.605,-0.016 0.607,-0.012 0.606,-0.009 0.606,-0.004 h 0.606 l 0.607,10e-4 0.607,0.007 0.605,0.011 0.605,0.014 0.607,0.019 0.605,0.021 0.604,0.027 0.607,0.029 0.607,0.034 0.604,0.037 0.605,0.043 0.605,0.044 0.604,0.049 0.604,0.052 0.604,0.057 0.604,0.06 0.602,0.064 0.604,0.068 0.601,0.072 0.603,0.076 0.602,0.08 0.6,0.083 0.603,0.087 0.6,0.092 0.599,0.094 0.598,0.099 0.6,0.103 0.599,0.106 0.596,0.111 0.597,0.113 0.596,0.119 0.596,0.121 0.596,0.126 0.595,0.129 0.593,0.133 0.592,0.138 0.592,0.14 0.592,0.145 0.591,0.148 0.591,0.153 0.589,0.156 0.587,0.16 0.589,0.164 0.585,0.168 0.586,0.172 0.584,0.175 0.584,0.18 0.584,0.183 0.581,0.186 0.579,0.191 0.58,0.196 0.581,0.197 0.577,0.203 0.575,0.205 0.575,0.211 0.574,0.213 0.574,0.219 0.573,0.221 0.569,0.224 0.57,0.23 0.569,0.233 0.565,0.237 0.567,0.242 0.565,0.244 0.563,0.248 0.56,0.252 0.561,0.256 0.559,0.258 0.556,0.264 0.557,0.268 0.555,0.272 0.553,0.275 0.552,0.28 0.551,0.283 0.548,0.285 0.547,0.292 0.546,0.293 0.544,0.299 0.542,0.301 0.542,0.307 0.539,0.309 0.536,0.314 0.536,0.318 0.535,0.32 0.532,0.326 0.53,0.329 0.528,0.332 0.527,0.337 0.528,0.342 0.523,0.344 0.522,0.346 0.518,0.352 0.517,0.356 0.517,0.36 0.514,0.363 0.512,0.368 0.512,0.372 0.506,0.373 0.504,0.379 0.506,0.384 0.504,0.388 0.498,0.388 0.498,0.395 0.496,0.397 0.493,0.403 0.491,0.405 0.489,0.411 0.488,0.413 0.484,0.416 0.481,0.421 0.482,0.427 0.478,0.428 0.475,0.432 0.475,0.437 0.47,0.44 0.468,0.444 0.467,0.45 0.463,0.45 0.462,0.456 0.459,0.46 0.456,0.463 0.453,0.467 0.452,0.472 0.451,0.476 0.447,0.477 0.444,0.483 0.441,0.489 1.483,-1.341 -0.45,-0.495 -0.454,-0.493 -0.455,-0.488 -0.459,-0.484 -0.46,-0.483 -0.464,-0.477 -0.466,-0.474 -0.47,-0.468 -0.47,-0.466 -0.474,-0.462 -0.477,-0.457 -0.479,-0.455 -0.481,-0.448 -0.483,-0.445 -0.485,-0.443 -0.489,-0.438 -0.49,-0.432 -0.492,-0.432 -0.497,-0.427 -0.496,-0.421 -0.5,-0.419 -0.501,-0.413 -0.504,-0.411 -0.507,-0.408 -0.508,-0.403 -0.512,-0.398 -0.512,-0.394 -0.513,-0.392 -0.518,-0.386 -0.52,-0.384 -0.52,-0.378 -0.522,-0.376 -0.527,-0.37 -0.525,-0.368 -0.528,-0.364 -0.534,-0.36 -0.533,-0.355 -0.533,-0.352 -0.536,-0.347 -0.538,-0.345 -0.541,-0.34 -0.541,-0.335 -0.546,-0.333 -0.545,-0.328 -0.547,-0.324 -0.549,-0.321 -0.552,-0.315 -0.551,-0.312 -0.554,-0.309 -0.555,-0.304 -0.557,-0.302 -0.56,-0.297 -0.562,-0.293 -0.561,-0.288 -0.563,-0.286 -0.566,-0.28 -0.566,-0.277 -0.568,-0.273 -0.569,-0.27 -0.572,-0.266 -0.572,-0.262 -0.573,-0.257 -0.576,-0.253 -0.576,-0.25 -0.578,-0.246 -0.578,-0.24 -0.58,-0.239 -0.583,-0.235 -0.583,-0.229 -0.584,-0.227 -0.584,-0.221 -0.585,-0.219 -0.588,-0.216 -0.591,-0.21 -0.59,-0.206 -0.59,-0.202 -0.59,-0.199 -0.595,-0.196 -0.595,-0.189 -0.594,-0.188 -0.595,-0.183 -0.597,-0.18 -0.599,-0.175 -0.599,-0.17 -0.6,-0.167 -0.6,-0.165 -0.602,-0.159 -0.602,-0.156 -0.604,-0.151 -0.602,-0.148 -0.606,-0.145 -0.605,-0.14 -0.607,-0.136 -0.608,-0.132 -0.606,-0.128 -0.607,-0.124 -0.609,-0.121 -0.611,-0.116 -0.609,-0.114 -0.612,-0.106 -0.611,-0.106 -0.612,-0.101 -0.612,-0.097 -0.613,-0.092 -0.614,-0.09 -0.613,-0.085 -0.613,-0.08 -0.616,-0.079 -0.615,-0.072 -0.615,-0.07 -0.617,-0.067 -0.617,-0.06 -0.615,-0.057 -0.617,-0.055 -0.618,-0.049 -0.616,-0.047 -0.618,-0.043 -0.618,-0.037 -0.617,-0.033 -0.617,-0.032 -0.62,-0.027 -0.619,-0.021 -0.617,-0.019 -0.619,-0.015 -0.619,-0.01 -0.62,-0.007 -0.617,-0.004 h -0.617 l -0.619,0.007 -0.62,0.009 -0.617,0.012 -0.619,0.016 -0.619,0.02 -0.618,0.025 -0.618,0.028 -0.617,0.034 -0.617,0.034 -0.62,0.04 -0.616,0.046 -0.618,0.046 -0.617,0.052 -0.616,0.056 -0.617,0.059 -0.615,0.065 -0.615,0.067 -0.616,0.072 -0.614,0.075 -0.614,0.078 -0.616,0.084 -0.612,0.087 -0.612,0.091 -0.614,0.094 -0.612,0.1 -0.611,0.102 -0.611,0.106 -0.609,0.111 -0.611,0.115 -0.609,0.118 -0.608,0.123 -0.608,0.125 -0.607,0.131 -0.605,0.133 -0.608,0.138 -0.605,0.142 -0.603,0.146 -0.603,0.149 -0.601,0.153 -0.603,0.156 -0.602,0.163 -0.599,0.165 -0.6,0.168 -0.597,0.175 -0.598,0.176 -0.594,0.18 -0.598,0.185 -0.593,0.19 -0.593,0.192 -0.592,0.197 -0.592,0.2 -0.59,0.205 -0.589,0.207 -0.588,0.213 -0.585,0.215 -0.586,0.22 -0.584,0.224 -0.584,0.228 -0.581,0.232 -0.5813,0.236 -0.58,0.239 -0.5774,0.244 -0.576,0.246 -0.576,0.252 -0.5733,0.255 -0.5733,0.259 -0.5707,0.262 -0.5693,0.267 -0.568,0.271 -0.568,0.276 -0.564,0.278 -0.564,0.282 -0.5627,0.286 -0.5613,0.291 -0.5587,0.295 -0.5573,0.297 -0.5574,0.303 -0.5533,0.305 -0.5533,0.311 -0.5507,0.313 -0.5493,0.317 -0.548,0.322 -0.5467,0.326 -0.5427,0.328 -0.5426,0.335 -0.54,0.336 -0.54,0.341 -0.536,0.346 -0.5347,0.349 -0.5333,0.352 -0.532,0.356 -0.5294,0.361 -0.5266,0.364 -0.5254,0.37 -0.524,0.37 -0.5213,0.378 -0.52,0.38 -0.5173,0.384 -0.5147,0.388 -0.5133,0.392 -0.5107,0.396 -0.5093,0.398 -0.5067,0.406 -0.5027,0.405 -0.504,0.412 -0.5,0.416 -0.4986,0.419 -0.4934,0.424 -0.4933,0.425 -0.492,0.432 -0.488,0.435 -0.5053,0.454 -0.3667,0.372 z"
             inkscape:connector-curvature="0"
             style="fill:#ff0202" />
        </g>
      </g>
      <g
         id="dp_group035">
        <g
           id="dp_group036">
          <path
             id="dp_path037"
             d="m 148.508,545.124 0.069,-1.999 0.139,-3.997 -10.167,4.649 9.82,5.344 z"
             inkscape:connector-curvature="0"
             style="fill:#0101ff;fill-rule:evenodd" />
          <path
             id="dp_path038"
             d="m 148.508,545.124 0.877,0.029 1.071,0.072 1.083,0.078 1.082,0.086 1.083,0.092 1.081,0.098 1.08,0.106 1.084,0.111 1.08,0.117 1.08,0.124 1.08,0.132 1.08,0.136 1.079,0.146 1.079,0.149 1.078,0.156 1.078,0.164 1.074,0.169 1.078,0.176 1.073,0.183 1.075,0.191 1.074,0.194 1.072,0.203 1.072,0.209 1.071,0.215 1.069,0.221 1.067,0.23 1.068,0.234 1.065,0.243 1.067,0.248 1.064,0.255 1.061,0.261 1.062,0.269 1.06,0.275 1.06,0.281 1.056,0.287 1.054,0.296 1.055,0.301 1.053,0.308 1.051,0.314 1.051,0.322 1.048,0.328 1.046,0.334 1.043,0.342 1.044,0.347 1.04,0.356 1.04,0.36 1.037,0.368 1.036,0.376 1.034,0.381 1.03,0.388 1.031,0.395 1.027,0.401 1.024,0.408 1.024,0.416 1.02,0.423 1.278,0.539 1.272,0.549 1.263,0.557 1.255,0.566 1.248,0.574 1.24,0.586 1.233,0.592 1.224,0.601 1.217,0.611 1.208,0.618 1.202,0.627 1.192,0.635 1.186,0.644 1.176,0.652 1.17,0.661 1.161,0.668 1.152,0.677 1.144,0.684 1.136,0.694 1.128,0.701 1.12,0.708 1.109,0.716 1.103,0.724 1.095,0.733 1.086,0.74 1.076,0.747 1.068,0.755 1.06,0.761 1.052,0.772 1.043,0.776 1.033,0.784 1.024,0.792 1.016,0.799 1.007,0.806 0.999,0.814 0.989,0.82 0.981,0.828 0.972,0.833 0.96,0.84 0.955,0.848 0.943,0.853 0.934,0.862 0.926,0.866 0.914,0.876 0.908,0.882 0.898,0.885 0.886,0.893 0.879,0.899 0.869,0.907 0.859,0.91 0.849,0.919 0.84,0.924 0.831,0.931 0.82,0.936 0.811,0.941 0.8,0.948 0.792,0.955 0.781,0.958 0.772,0.966 0.76,0.97 0.751,0.975 0.741,0.983 0.732,0.986 0.72,0.991 0.711,0.999 0.701,1.002 0.689,1.007 0.68,1.015 0.67,1.017 0.658,1.023 0.648,1.028 0.64,1.033 0.627,1.036 0.616,1.043 0.608,1.048 0.595,1.052 0.585,1.056 0.575,1.061 0.564,1.064 0.552,1.069 0.541,1.075 0.532,1.079 0.52,1.081 0.509,1.087 0.498,1.09 0.486,1.095 0.476,1.099 0.466,1.102 0.452,1.107 0.442,1.111 0.432,1.114 0.21,0.558 0.209,0.56 0.207,0.56 0.201,0.56 0.2,0.562 0.197,0.564 0.195,0.563 0.189,0.564 0.19,0.567 0.185,0.565 0.183,0.567 0.18,0.569 0.177,0.569 0.175,0.57 0.169,0.57 0.168,0.571 0.165,0.573 0.164,0.574 0.159,0.572 0.156,0.574 0.153,0.576 0.151,0.578 0.148,0.576 0.144,0.576 0.143,0.578 0.138,0.582 0.136,0.578 0.134,0.58 0.129,0.582 0.127,0.582 0.124,0.582 0.121,0.582 0.117,0.586 0.115,0.586 0.112,0.583 0.109,0.587 0.106,0.588 0.104,0.588 0.1,0.586 0.096,0.588 0.093,0.59 0.091,0.59 0.088,0.591 0.085,0.589 0.08,0.594 0.08,0.593 0.075,0.592 0.072,0.593 0.069,0.595 0.067,0.595 0.062,0.596 0.06,0.593 0.058,0.597 0.053,0.598 0.051,0.597 0.048,0.597 0.042,0.599 0.043,0.599 0.037,0.6 0.036,0.601 0.031,0.599 0.029,0.6 0.026,0.601 0.022,0.604 0.02,0.601 0.016,0.602 0.012,0.604 0.011,0.604 0.007,0.602 0.001,0.606 v 0.606 l -0.001,0.606 -0.007,0.605 -0.011,0.609 2,0.03 0.008,-0.615 0.007,-0.616 0.004,-0.616 v -0.612 l -0.004,-0.616 -0.007,-0.616 -0.01,-0.612 -0.012,-0.615 -0.016,-0.614 -0.02,-0.612 -0.023,-0.612 -0.025,-0.612 -0.03,-0.611 -0.033,-0.612 -0.036,-0.609 -0.037,-0.611 -0.043,-0.609 -0.045,-0.61 -0.048,-0.608 -0.051,-0.608 -0.056,-0.608 -0.057,-0.605 -0.06,-0.607 -0.066,-0.606 -0.066,-0.606 -0.072,-0.602 -0.072,-0.604 -0.078,-0.606 -0.08,-0.601 -0.082,-0.601 -0.086,-0.603 -0.09,-0.601 -0.091,-0.599 -0.096,-0.6 -0.099,-0.599 -0.102,-0.6 -0.104,-0.596 -0.108,-0.596 -0.11,-0.597 -0.114,-0.596 -0.118,-0.595 -0.12,-0.593 -0.121,-0.593 -0.127,-0.595 -0.129,-0.591 -0.132,-0.592 -0.136,-0.59 -0.139,-0.59 -0.141,-0.589 -0.143,-0.587 -0.146,-0.589 -0.151,-0.587 -0.153,-0.585 -0.156,-0.584 -0.159,-0.585 -0.164,-0.586 -0.164,-0.581 -0.168,-0.581 -0.171,-0.582 -0.174,-0.581 -0.178,-0.58 -0.18,-0.577 -0.182,-0.578 -0.186,-0.577 -0.188,-0.576 -0.192,-0.575 -0.194,-0.574 -0.198,-0.574 -0.2,-0.572 -0.202,-0.57 -0.207,-0.571 -0.209,-0.571 -0.212,-0.568 -0.215,-0.568 -0.437,-1.133 -0.451,-1.127 -0.46,-1.125 -0.473,-1.121 -0.484,-1.118 -0.495,-1.11 -0.505,-1.11 -0.518,-1.105 -0.528,-1.1 -0.54,-1.095 -0.549,-1.09 -0.563,-1.088 -0.572,-1.083 -0.585,-1.077 -0.593,-1.072 -0.606,-1.068 -0.616,-1.064 -0.626,-1.059 -0.638,-1.055 -0.648,-1.049 -0.658,-1.044 -0.67,-1.039 -0.68,-1.033 -0.69,-1.028 -0.7,-1.023 -0.712,-1.018 -0.722,-1.012 -0.73,-1.007 -0.743,-1.003 -0.752,-0.996 -0.761,-0.99 -0.774,-0.984 -0.782,-0.979 -0.792,-0.975 -0.803,-0.968 -0.813,-0.961 -0.822,-0.955 -0.833,-0.949 -0.841,-0.944 -0.854,-0.937 -0.86,-0.932 -0.872,-0.924 -0.882,-0.92 -0.89,-0.912 -0.9,-0.907 -0.91,-0.899 -0.919,-0.892 -0.928,-0.886 -0.939,-0.88 -0.948,-0.872 -0.956,-0.867 -0.965,-0.859 -0.976,-0.853 -0.985,-0.844 -0.992,-0.839 -1.003,-0.83 -1.012,-0.824 -1.02,-0.818 -1.029,-0.809 -1.04,-0.803 -1.047,-0.794 -1.056,-0.787 -1.065,-0.78 -1.074,-0.772 -1.081,-0.765 -1.092,-0.758 -1.1,-0.748 -1.108,-0.741 -1.116,-0.735 -1.125,-0.726 -1.134,-0.716 -1.141,-0.71 -1.152,-0.701 -1.157,-0.695 -1.168,-0.685 -1.175,-0.676 -1.183,-0.669 -1.192,-0.66 -1.2,-0.652 -1.208,-0.643 -1.214,-0.635 -1.224,-0.626 -1.231,-0.616 -1.24,-0.61 -1.247,-0.6 -1.256,-0.59 -1.261,-0.583 -1.271,-0.573 -1.278,-0.563 -1.286,-0.555 -1.292,-0.546 -1.033,-0.426 -1.035,-0.421 -1.037,-0.413 -1.04,-0.407 -1.041,-0.4 -1.044,-0.391 -1.044,-0.386 -1.047,-0.379 -1.051,-0.373 -1.05,-0.366 -1.054,-0.358 -1.054,-0.352 -1.056,-0.346 -1.06,-0.338 -1.059,-0.331 -1.061,-0.325 -1.064,-0.319 -1.064,-0.311 -1.066,-0.304 -1.068,-0.298 -1.069,-0.292 -1.071,-0.284 -1.07,-0.278 -1.075,-0.272 -1.075,-0.264 -1.074,-0.257 -1.078,-0.251 -1.078,-0.245 -1.079,-0.237 -1.08,-0.232 -1.083,-0.224 -1.081,-0.218 -1.083,-0.212 -1.085,-0.205 -1.085,-0.197 -1.086,-0.191 -1.086,-0.185 -1.088,-0.179 -1.088,-0.172 -1.091,-0.164 -1.089,-0.159 -1.09,-0.152 -1.092,-0.145 -1.09,-0.139 -1.091,-0.132 -1.093,-0.126 -1.094,-0.118 -1.092,-0.113 -1.093,-0.107 -1.095,-0.1 -1.093,-0.092 -1.096,-0.086 -1.093,-0.08 -1.108,-0.075 -0.91,-0.032 z"
             inkscape:connector-curvature="0"
             style="fill:#0101ff" />
        </g>
      </g>
      <text
         id="dp_text005"
         transform="translate(26.5249,625.217)"
         xml:space="preserve"
         font-size="27"
         font-weight="400"
         x="0"
         y="0"
         style="font-weight:400;font-size:27px;font-family:Arial;fill:#000000">−</text>
      <text
         id="dp_text006"
         transform="translate(26.5249,625.217)"
         xml:space="preserve"
         font-size="27"
         font-weight="400"
         x="15.5733"
         y="0"
         style="font-weight:400;font-size:27px;font-family:Arial;fill:#000000">k </text>
      <text
         id="dp_text007"
         transform="translate(-36.5871,677.909)"
         xml:space="preserve"
         font-size="27"
         font-weight="400"
         x="0"
         y="0"
         style="font-weight:400;font-size:27px;font-family:Arial;fill:#000000">−</text>
      <text
         id="dp_text008"
         transform="translate(-36.5871,677.909)"
         xml:space="preserve"
         font-size="27"
         font-weight="400"
         x="15.5733"
         y="0"
         style="font-weight:400;font-size:27px;font-family:Arial;fill:#000000">1 </text>
      <text
         id="dp_text009"
         transform="translate(26.5249,759.39)"
         xml:space="preserve"
         font-size="27"
         font-weight="400"
         x="0"
         y="0"
         style="font-weight:400;font-size:27px;font-family:Arial;fill:#000000">−</text>
      <text
         id="dp_text010"
         transform="translate(26.5249,759.39)"
         xml:space="preserve"
         font-size="27"
         font-weight="400"
         x="15.5733"
         y="0"
         style="font-weight:400;font-size:27px;font-family:Arial;fill:#000000">j </text>
      <text
         id="dp_text011"
         transform="translate(102.194,853.289)"
         xml:space="preserve"
         font-size="27"
         font-weight="400"
         x="0"
         y="0"
         style="font-weight:400;font-size:27px;font-family:Arial;fill:#000000">−i</text>
      <text
         id="dp_text012"
         transform="translate(102.194,853.289)"
         xml:space="preserve"
         font-size="27"
         font-weight="400"
         x="21.476"
         y="0"
         style="font-weight:400;font-size:27px;font-family:Arial;fill:#000000"> </text>
      <path
         id="dp_path047"
         d="m 137.839,540.104 c 1.877,0 3.398,1.523 3.398,3.4 0,1.877 -1.521,3.4 -3.398,3.4 -1.878,0 -3.399,-1.523 -3.399,-3.4 0,-1.877 1.521,-3.4 3.399,-3.4 z"
         inkscape:connector-curvature="0"
         style="fill:#000000;fill-rule:evenodd;stroke:none;stroke-width:1.33333004" />
      <path
         id="dp_path048"
         d="m 64.9373,611.179 c 1.8774,0 3.3987,1.522 3.3987,3.4 0,1.877 -1.5213,3.4 -3.3987,3.4 -1.8773,0 -3.3986,-1.523 -3.3986,-3.4 0,-1.878 1.5213,-3.4 3.3986,-3.4 z"
         inkscape:connector-curvature="0"
         style="fill:#000000;fill-rule:evenodd;stroke:none;stroke-width:1.33333004" />
      <path
         id="dp_path049"
         d="m 207.043,610.509 c 1.877,0 3.398,1.523 3.398,3.4 0,1.878 -1.521,3.4 -3.398,3.4 -1.878,0 -3.399,-1.522 -3.399,-3.4 0,-1.877 1.521,-3.4 3.399,-3.4 z"
         inkscape:connector-curvature="0"
         style="fill:#000000;fill-rule:evenodd;stroke:none;stroke-width:1.33333004" />
      <path
         id="dp_path050"
         d="m 208.019,759.6 c 1.877,0 3.398,-1.523 3.398,-3.4 0,-1.877 -1.521,-3.4 -3.398,-3.4 -1.878,0 -3.399,1.523 -3.399,3.4 0,1.877 1.521,3.4 3.399,3.4 z"
         inkscape:connector-curvature="0"
         style="fill:#000000;fill-rule:evenodd;stroke:none;stroke-width:1.33333004" />
      <path
         id="dp_path051"
         d="m 296.043,682.509 c 1.877,0 3.398,1.523 3.398,3.4 0,1.878 -1.521,3.4 -3.398,3.4 -1.878,0 -3.399,-1.522 -3.399,-3.4 0,-1.877 1.521,-3.4 3.399,-3.4 z"
         inkscape:connector-curvature="0"
         style="fill:#000000;fill-rule:evenodd;stroke:none;stroke-width:1.33333004" />
      <path
         id="dp_path052"
         d="m -20.1707,682.509 c -1.8773,0 -3.3986,1.523 -3.3986,3.4 0,1.878 1.5213,3.4 3.3986,3.4 1.8774,0 3.3987,-1.522 3.3987,-3.4 0,-1.877 -1.5213,-3.4 -3.3987,-3.4 z"
         inkscape:connector-curvature="0"
         style="fill:#000000;fill-rule:evenodd;stroke:none;stroke-width:1.33333004" />
      <path
         id="dp_path053"
         d="m 137.936,827.303 c -1.877,0 -3.399,-1.523 -3.399,-3.4 0,-1.878 1.522,-3.4 3.399,-3.4 1.877,0 3.399,1.522 3.399,3.4 0,1.877 -1.522,3.4 -3.399,3.4 z"
         inkscape:connector-curvature="0"
         style="fill:#000000;fill-rule:evenodd;stroke:none;stroke-width:1.33333004" />
      <path
         id="dp_path054"
         d="m 68.732,756.897 c -1.8773,0 -3.3987,-1.522 -3.3987,-3.4 0,-1.877 1.5214,-3.4 3.3987,-3.4 1.8773,0 3.3987,1.523 3.3987,3.4 0,1.878 -1.5214,3.4 -3.3987,3.4 z"
         inkscape:connector-curvature="0"
         style="fill:#000000;fill-rule:evenodd;stroke:none;stroke-width:1.33333004" />
    </g>
    <g
       id="dp_group055" />
  </g>
</svg>
